<svg width="173" height="40" viewBox="0 0 173 40" fill="none" xmlns="http://www.w3.org/2000/svg">
<path d="M29.9547 12.6927L14.8566 38.7815C13.3267 41.4253 9.93828 40.6809 9.04373 37.4948L1.506 10.6982C1.29985 10.1324 1.21903 9.5206 1.27025 8.91337C1.32148 8.30629 1.50326 7.72133 1.80052 7.20713C2.09778 6.69307 2.50194 6.26445 2.97946 5.95713C3.45698 5.64982 3.99409 5.47245 4.5462 5.43985L27.1809 6.15192C29.8675 6.23625 31.4846 10.0489 29.9547 12.6927Z" fill="#1DACE3"/>
<path d="M34.1481 20.6126L8.03752 36.6621C7.44019 37.029 6.76257 37.2068 6.0794 37.1759C5.39624 37.1451 4.73408 36.9068 4.16594 36.4872C3.59779 36.0677 3.14574 35.4833 2.85963 34.7984C2.57352 34.1136 2.46447 33.3549 2.54451 32.606L5.53224 4.65486C5.60105 4.01142 5.80736 3.39509 6.13422 2.85655C6.46111 2.31816 6.8992 1.873 7.41248 1.55759C7.92577 1.24233 8.49958 1.06578 9.08677 1.04274C9.67394 1.0197 10.2577 1.15069 10.79 1.42481L33.9131 13.3336C34.531 13.6535 35.057 14.1551 35.4331 14.7832C35.8094 15.4114 36.0212 16.1416 36.0455 16.8939C36.0698 17.6463 35.9056 18.3914 35.5709 19.0475C35.236 19.7035 34.7438 20.245 34.1481 20.6126Z" fill="#FB6908"/>
<path d="M5.44413 5.47261L3.95469 19.4061L8.69559 36.2538L20.5212 28.9875L29.9547 12.6927C30.1604 12.3333 30.3142 11.9409 30.4104 11.5294L19.5041 5.91219L5.44413 5.47261Z" fill="#001A49"/>
<path d="M49.3408 28.7883V10.4253H53.6168L63.7427 22.6498H61.7228V10.4253H66.812V28.7883H62.536L52.4101 16.5638H54.43V28.7883H49.3408ZM77.375 29.0244C75.8185 29.0244 74.4369 28.7096 73.2302 28.08C72.0235 27.4504 71.0704 26.5847 70.3708 25.483C69.6888 24.3637 69.3477 23.087 69.3477 21.653C69.3477 20.2189 69.6888 18.951 70.3708 17.8492C71.0704 16.7474 72.0235 15.8905 73.2302 15.2784C74.4369 14.6488 75.8185 14.334 77.375 14.334C78.9315 14.334 80.3131 14.6488 81.5198 15.2784C82.744 15.8905 83.6972 16.7474 84.3792 17.8492C85.0613 18.951 85.4023 20.2189 85.4023 21.653C85.4023 23.087 85.0613 24.3637 84.3792 25.483C83.6972 26.5847 82.744 27.4504 81.5198 28.08C80.3131 28.7096 78.9315 29.0244 77.375 29.0244ZM77.375 25.0632C77.9521 25.0632 78.4593 24.9321 78.8965 24.6697C79.3512 24.4074 79.7098 24.0227 79.9721 23.5155C80.2344 22.9908 80.3656 22.37 80.3656 21.653C80.3656 20.9359 80.2344 20.3326 79.9721 19.8429C79.7098 19.3357 79.3512 18.951 78.8965 18.6886C78.4593 18.4263 77.9521 18.2951 77.375 18.2951C76.8154 18.2951 76.3082 18.4263 75.8535 18.6886C75.4163 18.951 75.0578 19.3357 74.778 19.8429C74.5156 20.3326 74.3845 20.9359 74.3845 21.653C74.3845 22.37 74.5156 22.9908 74.778 23.5155C75.0578 24.0227 75.4163 24.4074 75.8535 24.6697C76.3082 24.9321 76.8154 25.0632 77.375 25.0632ZM96.9714 14.334C98.0732 14.334 99.0701 14.5613 99.962 15.016C100.854 15.4532 101.553 16.1353 102.061 17.0622C102.585 17.9891 102.848 19.1871 102.848 20.6561V28.7883H97.8634V21.4693C97.8634 20.455 97.6535 19.7205 97.2338 19.2658C96.8315 18.7936 96.2631 18.5575 95.5286 18.5575C95.004 18.5575 94.523 18.6799 94.0858 18.9247C93.6486 19.1521 93.3076 19.5106 93.0627 20.0003C92.8179 20.49 92.6955 21.1283 92.6955 21.9153V28.7883H87.7112V14.5701H92.4594V18.6099L91.5412 17.4295C92.0834 16.3976 92.8266 15.6281 93.771 15.121C94.7154 14.5963 95.7822 14.334 96.9714 14.334ZM112.325 29.0244C110.506 29.0244 109.09 28.5785 108.076 27.6865C107.061 26.7771 106.554 25.413 106.554 23.5942V11.3959H111.538V23.5417C111.538 24.0489 111.678 24.4511 111.958 24.7484C112.238 25.0283 112.596 25.1682 113.034 25.1682C113.628 25.1682 114.135 25.0195 114.555 24.7222L115.788 28.2112C115.368 28.491 114.852 28.6921 114.24 28.8145C113.628 28.9545 112.99 29.0244 112.325 29.0244ZM104.482 18.8198V15.0947H114.791V18.8198H104.482ZM124.435 29.0244C122.879 29.0244 121.497 28.7096 120.291 28.08C119.084 27.4504 118.131 26.5847 117.431 25.483C116.749 24.3637 116.408 23.087 116.408 21.653C116.408 20.2189 116.749 18.951 117.431 17.8492C118.131 16.7474 119.084 15.8905 120.291 15.2784C121.497 14.6488 122.879 14.334 124.435 14.334C125.992 14.334 127.374 14.6488 128.58 15.2784C129.804 15.8905 130.758 16.7474 131.44 17.8492C132.122 18.951 132.463 20.2189 132.463 21.653C132.463 23.087 132.122 24.3637 131.44 25.483C130.758 26.5847 129.804 27.4504 128.58 28.08C127.374 28.7096 125.992 29.0244 124.435 29.0244ZM124.435 25.0632C125.013 25.0632 125.52 24.9321 125.957 24.6697C126.412 24.4074 126.77 24.0227 127.033 23.5155C127.295 22.9908 127.426 22.37 127.426 21.653C127.426 20.9359 127.295 20.3326 127.033 19.8429C126.77 19.3357 126.412 18.951 125.957 18.6886C125.52 18.4263 125.013 18.2951 124.435 18.2951C123.876 18.2951 123.369 18.4263 122.914 18.6886C122.477 18.951 122.118 19.3357 121.838 19.8429C121.576 20.3326 121.445 20.9359 121.445 21.653C121.445 22.37 121.576 22.9908 121.838 23.5155C122.118 24.0227 122.477 24.4074 122.914 24.6697C123.369 24.9321 123.876 25.0632 124.435 25.0632ZM141.907 29.0244C140.351 29.0244 138.969 28.7096 137.762 28.08C136.556 27.4504 135.602 26.5847 134.903 25.483C134.221 24.3637 133.88 23.087 133.88 21.653C133.88 20.2189 134.221 18.951 134.903 17.8492C135.602 16.7474 136.556 15.8905 137.762 15.2784C138.969 14.6488 140.351 14.334 141.907 14.334C143.464 14.334 144.845 14.6488 146.052 15.2784C147.276 15.8905 148.229 16.7474 148.911 17.8492C149.593 18.951 149.934 20.2189 149.934 21.653C149.934 23.087 149.593 24.3637 148.911 25.483C148.229 26.5847 147.276 27.4504 146.052 28.08C144.845 28.7096 143.464 29.0244 141.907 29.0244ZM141.907 25.0632C142.484 25.0632 142.991 24.9321 143.429 24.6697C143.883 24.4074 144.242 24.0227 144.504 23.5155C144.766 22.9908 144.898 22.37 144.898 21.653C144.898 20.9359 144.766 20.3326 144.504 19.8429C144.242 19.3357 143.883 18.951 143.429 18.6886C142.991 18.4263 142.484 18.2951 141.907 18.2951C141.347 18.2951 140.84 18.4263 140.386 18.6886C139.948 18.951 139.59 19.3357 139.31 19.8429C139.048 20.3326 138.916 20.9359 138.916 21.653C138.916 22.37 139.048 22.9908 139.31 23.5155C139.59 24.0227 139.948 24.4074 140.386 24.6697C140.84 24.9321 141.347 25.0632 141.907 25.0632ZM161.503 14.334C162.605 14.334 163.602 14.5613 164.494 15.016C165.386 15.4532 166.085 16.1353 166.593 17.0622C167.117 17.9891 167.38 19.1871 167.38 20.6561V28.7883H162.395V21.4693C162.395 20.455 162.185 19.7205 161.766 19.2658C161.364 18.7936 160.795 18.5575 160.061 18.5575C159.536 18.5575 159.055 18.6799 158.618 18.9247C158.181 19.1521 157.84 19.5106 157.595 20.0003C157.35 20.49 157.227 21.1283 157.227 21.9153V28.7883H152.243V14.5701H156.991V18.6099L156.073 17.4295C156.615 16.3976 157.359 15.6281 158.303 15.121C159.247 14.5963 160.314 14.334 161.503 14.334Z" fill="black"/>
</svg>
