<svg width="176" height="41" viewBox="0 0 176 41" fill="none" xmlns="http://www.w3.org/2000/svg">
<path d="M29.0944 12.6927L13.9964 38.7815C12.4665 41.4253 9.07805 40.6809 8.1835 37.4948L0.645773 10.6982C0.439624 10.1324 0.358805 9.52059 0.410025 8.91336C0.461249 8.30628 0.643031 7.72132 0.94029 7.20712C1.23755 6.69306 1.64171 6.26444 2.11923 5.95713C2.59675 5.64981 3.13386 5.47244 3.68597 5.43984L26.3206 6.15191C29.0073 6.23625 30.6244 10.0489 29.0944 12.6927Z" fill="#1DACE3"/>
<path d="M33.2878 20.6126L7.17729 36.6621C6.57996 37.029 5.90234 37.2068 5.21918 37.1759C4.53601 37.1451 3.87385 36.9068 3.30571 36.4872C2.73757 36.0677 2.28551 35.4833 1.9994 34.7984C1.71329 34.1136 1.60424 33.3549 1.68428 32.606L4.67201 4.65486C4.74082 4.01141 4.94713 3.39508 5.27399 2.85655C5.60088 2.31816 6.03897 1.87299 6.55225 1.55759C7.06554 1.24232 7.63935 1.06577 8.22654 1.04273C8.81371 1.01969 9.39748 1.15068 9.92981 1.4248L33.0528 13.3335C33.6707 13.6535 34.1967 14.1551 34.5729 14.7832C34.9491 15.4114 35.161 16.1416 35.1853 16.8939C35.2096 17.6463 35.0454 18.3914 34.7107 19.0474C34.3758 19.7035 33.8835 20.245 33.2878 20.6126Z" fill="#FB6908"/>
<path d="M4.58366 5.47259L3.09422 19.406L7.83511 36.2538L19.6607 28.9874L29.0942 12.6927C29.2999 12.3333 29.4537 11.9408 29.55 11.5294L18.6436 5.91218L4.58366 5.47259Z" fill="#001A49"/>
<path d="M48.4803 28.7883V10.4253H52.7563L62.8822 22.6498H60.8623V10.4253H65.9515V28.7883H61.6755L51.5496 16.5638H53.5695V28.7883H48.4803ZM76.5145 29.0244C74.9581 29.0244 73.5765 28.7096 72.3697 28.08C71.163 27.4504 70.2099 26.5848 69.5104 25.483C68.8283 24.3637 68.4873 23.087 68.4873 21.653C68.4873 20.2189 68.8283 18.951 69.5104 17.8492C70.2099 16.7474 71.163 15.8905 72.3697 15.2784C73.5765 14.6488 74.9581 14.334 76.5145 14.334C78.071 14.334 79.4526 14.6488 80.6594 15.2784C81.8836 15.8905 82.8367 16.7474 83.5187 17.8492C84.2008 18.951 84.5418 20.2189 84.5418 21.653C84.5418 23.087 84.2008 24.3637 83.5187 25.483C82.8367 26.5848 81.8836 27.4504 80.6594 28.08C79.4526 28.7096 78.071 29.0244 76.5145 29.0244ZM76.5145 25.0632C77.0917 25.0632 77.5988 24.9321 78.0361 24.6697C78.4908 24.4074 78.8493 24.0227 79.1116 23.5155C79.3739 22.9908 79.5051 22.37 79.5051 21.653C79.5051 20.9359 79.3739 20.3326 79.1116 19.8429C78.8493 19.3357 78.4908 18.951 78.0361 18.6886C77.5988 18.4263 77.0917 18.2951 76.5145 18.2951C75.9549 18.2951 75.4477 18.4263 74.993 18.6886C74.5558 18.951 74.1973 19.3357 73.9175 19.8429C73.6552 20.3326 73.524 20.9359 73.524 21.653C73.524 22.37 73.6552 22.9908 73.9175 23.5155C74.1973 24.0227 74.5558 24.4074 74.993 24.6697C75.4477 24.9321 75.9549 25.0632 76.5145 25.0632ZM96.111 14.334C97.2127 14.334 98.2096 14.5613 99.1015 15.016C99.9934 15.4532 100.693 16.1353 101.2 17.0622C101.725 17.9891 101.987 19.1871 101.987 20.6561V28.7883H97.0029V21.4693C97.0029 20.455 96.793 19.7205 96.3733 19.2658C95.9711 18.7936 95.4027 18.5575 94.6682 18.5575C94.1435 18.5575 93.6626 18.6799 93.2253 18.9247C92.7881 19.1521 92.4471 19.5106 92.2023 20.0003C91.9574 20.49 91.835 21.1283 91.835 21.9153V28.7883H86.8507V14.5701H91.5989V18.6099L90.6807 17.4295C91.2229 16.3976 91.9662 15.6281 92.9105 15.121C93.8549 14.5963 94.9217 14.334 96.111 14.334ZM111.465 29.0244C109.646 29.0244 108.229 28.5785 107.215 27.6865C106.201 26.7771 105.694 25.413 105.694 23.5942V11.3959H110.678V23.5417C110.678 24.0489 110.818 24.4511 111.098 24.7484C111.377 25.0283 111.736 25.1682 112.173 25.1682C112.768 25.1682 113.275 25.0195 113.695 24.7222L114.928 28.2112C114.508 28.491 113.992 28.6921 113.38 28.8146C112.768 28.9545 112.129 29.0244 111.465 29.0244ZM103.621 18.8198V15.0947H113.931V18.8198H103.621ZM123.575 29.0244C122.019 29.0244 120.637 28.7096 119.43 28.08C118.223 27.4504 117.27 26.5848 116.571 25.483C115.889 24.3637 115.548 23.087 115.548 21.653C115.548 20.2189 115.889 18.951 116.571 17.8492C117.27 16.7474 118.223 15.8905 119.43 15.2784C120.637 14.6488 122.019 14.334 123.575 14.334C125.131 14.334 126.513 14.6488 127.72 15.2784C128.944 15.8905 129.897 16.7474 130.579 17.8492C131.261 18.951 131.602 20.2189 131.602 21.653C131.602 23.087 131.261 24.3637 130.579 25.483C129.897 26.5848 128.944 27.4504 127.72 28.08C126.513 28.7096 125.131 29.0244 123.575 29.0244ZM123.575 25.0632C124.152 25.0632 124.659 24.9321 125.097 24.6697C125.551 24.4074 125.91 24.0227 126.172 23.5155C126.434 22.9908 126.566 22.37 126.566 21.653C126.566 20.9359 126.434 20.3326 126.172 19.8429C125.91 19.3357 125.551 18.951 125.097 18.6886C124.659 18.4263 124.152 18.2951 123.575 18.2951C123.015 18.2951 122.508 18.4263 122.053 18.6886C121.616 18.951 121.258 19.3357 120.978 19.8429C120.716 20.3326 120.584 20.9359 120.584 21.653C120.584 22.37 120.716 22.9908 120.978 23.5155C121.258 24.0227 121.616 24.4074 122.053 24.6697C122.508 24.9321 123.015 25.0632 123.575 25.0632ZM141.047 29.0244C139.49 29.0244 138.108 28.7096 136.902 28.08C135.695 27.4504 134.742 26.5848 134.042 25.483C133.36 24.3637 133.019 23.087 133.019 21.653C133.019 20.2189 133.36 18.951 134.042 17.8492C134.742 16.7474 135.695 15.8905 136.902 15.2784C138.108 14.6488 139.49 14.334 141.047 14.334C142.603 14.334 143.985 14.6488 145.191 15.2784C146.416 15.8905 147.369 16.7474 148.051 17.8492C148.733 18.951 149.074 20.2189 149.074 21.653C149.074 23.087 148.733 24.3637 148.051 25.483C147.369 26.5848 146.416 27.4504 145.191 28.08C143.985 28.7096 142.603 29.0244 141.047 29.0244ZM141.047 25.0632C141.624 25.0632 142.131 24.9321 142.568 24.6697C143.023 24.4074 143.381 24.0227 143.644 23.5155C143.906 22.9908 144.037 22.37 144.037 21.653C144.037 20.9359 143.906 20.3326 143.644 19.8429C143.381 19.3357 143.023 18.951 142.568 18.6886C142.131 18.4263 141.624 18.2951 141.047 18.2951C140.487 18.2951 139.98 18.4263 139.525 18.6886C139.088 18.951 138.729 19.3357 138.449 19.8429C138.187 20.3326 138.056 20.9359 138.056 21.653C138.056 22.37 138.187 22.9908 138.449 23.5155C138.729 24.0227 139.088 24.4074 139.525 24.6697C139.98 24.9321 140.487 25.0632 141.047 25.0632ZM160.643 14.334C161.745 14.334 162.742 14.5613 163.634 15.016C164.525 15.4532 165.225 16.1353 165.732 17.0622C166.257 17.9891 166.519 19.1871 166.519 20.6561V28.7883H161.535V21.4693C161.535 20.455 161.325 19.7205 160.905 19.2658C160.503 18.7936 159.935 18.5575 159.2 18.5575C158.675 18.5575 158.195 18.6799 157.757 18.9247C157.32 19.1521 156.979 19.5106 156.734 20.0003C156.489 20.49 156.367 21.1283 156.367 21.9153V28.7883H151.383V14.5701H156.131V18.6099L155.213 17.4295C155.755 16.3976 156.498 15.6281 157.443 15.121C158.387 14.5963 159.454 14.334 160.643 14.334Z" fill="white"/>
</svg>
